<?xml version="1.0" encoding="UTF-8" standalone="no"?>
<!DOCTYPE svg PUBLIC "-//W3C//DTD SVG 1.1//EN"
 "http://www.w3.org/Graphics/SVG/1.1/DTD/svg11.dtd">
<!-- Generated by graphviz version 2.40.1 (20161225.0304)
 -->
<!-- Title: dependencies Pages: 1 -->
<svg width="504pt" height="211pt"
 viewBox="0.00 0.00 504.00 211.00" xmlns="http://www.w3.org/2000/svg" xmlns:xlink="http://www.w3.org/1999/xlink">
<g id="graph0" class="graph" transform="scale(1 1) rotate(0) translate(4 207)">
<title>dependencies</title>
<polygon fill="#ffffff" stroke="transparent" points="-4,4 -4,-207 500,-207 500,4 -4,4"/>
<text text-anchor="start" x="227.0091" y="-42.4" font-family="sans-serif" font-weight="bold" font-size="14.00" fill="#000000">Legend</text>
<polygon fill="#ffffb3" stroke="transparent" points="14,-10 14,-30 34,-30 34,-10 14,-10"/>
<text text-anchor="start" x="37.629" y="-15.4" font-family="sans-serif" font-size="14.00" fill="#000000"> &#160;Declarations</text>
<polygon fill="#8dd3c7" stroke="transparent" points="127,-10 127,-30 147,-30 147,-10 127,-10"/>
<text text-anchor="start" x="150.7251" y="-15.4" font-family="sans-serif" font-size="14.00" fill="#000000"> &#160;Module</text>
<polygon fill="#80b1d3" stroke="transparent" points="213,-10 213,-30 233,-30 233,-10 213,-10"/>
<text text-anchor="start" x="236.7812" y="-15.4" font-family="sans-serif" font-size="14.00" fill="#000000"> &#160;Bootstrap</text>
<polygon fill="#fdb462" stroke="transparent" points="310,-10 310,-30 330,-30 330,-10 310,-10"/>
<text text-anchor="start" x="333.6732" y="-15.4" font-family="sans-serif" font-size="14.00" fill="#000000"> &#160;Providers</text>
<polygon fill="#fb8072" stroke="transparent" points="406,-10 406,-30 426,-30 426,-10 406,-10"/>
<text text-anchor="start" x="429.7258" y="-15.4" font-family="sans-serif" font-size="14.00" fill="#000000"> &#160;Exports</text>
<g id="clust1" class="cluster">
<title>cluster_FolderPageModule</title>
<polygon fill="none" stroke="#000000" stroke-dasharray="1,5" points="96,-70 96,-195 400,-195 400,-70 96,-70"/>
</g>
<g id="clust2" class="cluster">
<title>cluster_FolderPageModule_declarations</title>
<polygon fill="none" stroke="#000000" points="296,-78 296,-130 392,-130 392,-78 296,-78"/>
</g>
<g id="clust4" class="cluster">
<title>cluster_FolderPageModule_imports</title>
<polygon fill="none" stroke="#000000" points="104,-78 104,-130 288,-130 288,-78 104,-78"/>
</g>
<!-- FolderPage -->
<g id="node1" class="node">
<title>FolderPage</title>
<polygon fill="#ffffb3" stroke="#000000" points="383.7606,-122 304.2394,-122 304.2394,-86 383.7606,-86 383.7606,-122"/>
<text text-anchor="middle" x="344" y="-99.8" font-family="Times,serif" font-size="14.00" fill="#000000">FolderPage</text>
</g>
<!-- FolderPageModule -->
<g id="node2" class="node">
<title>FolderPageModule</title>
<polygon fill="#8dd3c7" stroke="#000000" points="324.8104,-187 321.8104,-191 300.8104,-191 297.8104,-187 201.1896,-187 201.1896,-151 324.8104,-151 324.8104,-187"/>
<text text-anchor="middle" x="263" y="-164.8" font-family="Times,serif" font-size="14.00" fill="#000000">FolderPageModule</text>
</g>
<!-- FolderPage&#45;&gt;FolderPageModule -->
<g id="edge1" class="edge">
<title>FolderPage&#45;&gt;FolderPageModule</title>
<path fill="none" stroke="#000000" d="M314.3875,-122.1061C314.3875,-122.1061 314.3875,-140.991 314.3875,-140.991"/>
<polygon fill="#000000" stroke="#000000" points="310.8875,-140.9909 314.3875,-150.991 317.8875,-140.991 310.8875,-140.9909"/>
</g>
<!-- FolderPageRoutingModule -->
<g id="node3" class="node">
<title>FolderPageRoutingModule</title>
<polygon fill="#8dd3c7" stroke="#000000" points="280.4283,-122 277.4283,-126 256.4283,-126 253.4283,-122 111.5717,-122 111.5717,-86 280.4283,-86 280.4283,-122"/>
<text text-anchor="middle" x="196" y="-99.8" font-family="Times,serif" font-size="14.00" fill="#000000">FolderPageRoutingModule</text>
</g>
<!-- FolderPageRoutingModule&#45;&gt;FolderPageModule -->
<g id="edge2" class="edge">
<title>FolderPageRoutingModule&#45;&gt;FolderPageModule</title>
<path fill="none" stroke="#000000" d="M240.7795,-122.1061C240.7795,-122.1061 240.7795,-140.991 240.7795,-140.991"/>
<polygon fill="#000000" stroke="#000000" points="237.2795,-140.9909 240.7795,-150.991 244.2795,-140.991 237.2795,-140.9909"/>
</g>
</g>
</svg>
