<?xml version="1.0" encoding="UTF-8" standalone="no"?>
<!DOCTYPE svg PUBLIC "-//W3C//DTD SVG 1.1//EN"
 "http://www.w3.org/Graphics/SVG/1.1/DTD/svg11.dtd">
<!-- Generated by graphviz version 2.40.1 (20161225.0304)
 -->
<!-- Title: dependencies Pages: 1 -->
<svg width="504pt" height="211pt"
 viewBox="0.00 0.00 504.00 211.00" xmlns="http://www.w3.org/2000/svg" xmlns:xlink="http://www.w3.org/1999/xlink">
<g id="graph0" class="graph" transform="scale(1 1) rotate(0) translate(4 207)">
<title>dependencies</title>
<polygon fill="#ffffff" stroke="transparent" points="-4,4 -4,-207 500,-207 500,4 -4,4"/>
<text text-anchor="start" x="227.0091" y="-42.4" font-family="sans-serif" font-weight="bold" font-size="14.00" fill="#000000">Legend</text>
<polygon fill="#ffffb3" stroke="transparent" points="14,-10 14,-30 34,-30 34,-10 14,-10"/>
<text text-anchor="start" x="37.629" y="-15.4" font-family="sans-serif" font-size="14.00" fill="#000000"> &#160;Declarations</text>
<polygon fill="#8dd3c7" stroke="transparent" points="127,-10 127,-30 147,-30 147,-10 127,-10"/>
<text text-anchor="start" x="150.7251" y="-15.4" font-family="sans-serif" font-size="14.00" fill="#000000"> &#160;Module</text>
<polygon fill="#80b1d3" stroke="transparent" points="213,-10 213,-30 233,-30 233,-10 213,-10"/>
<text text-anchor="start" x="236.7812" y="-15.4" font-family="sans-serif" font-size="14.00" fill="#000000"> &#160;Bootstrap</text>
<polygon fill="#fdb462" stroke="transparent" points="310,-10 310,-30 330,-30 330,-10 310,-10"/>
<text text-anchor="start" x="333.6732" y="-15.4" font-family="sans-serif" font-size="14.00" fill="#000000"> &#160;Providers</text>
<polygon fill="#fb8072" stroke="transparent" points="406,-10 406,-30 426,-30 426,-10 406,-10"/>
<text text-anchor="start" x="429.7258" y="-15.4" font-family="sans-serif" font-size="14.00" fill="#000000"> &#160;Exports</text>
<g id="clust1" class="cluster">
<title>cluster_SearchPageModule</title>
<polygon fill="none" stroke="#000000" stroke-dasharray="1,5" points="94,-70 94,-195 402,-195 402,-70 94,-70"/>
</g>
<g id="clust2" class="cluster">
<title>cluster_SearchPageModule_declarations</title>
<polygon fill="none" stroke="#000000" points="296,-78 296,-130 394,-130 394,-78 296,-78"/>
</g>
<g id="clust4" class="cluster">
<title>cluster_SearchPageModule_imports</title>
<polygon fill="none" stroke="#000000" points="102,-78 102,-130 288,-130 288,-78 102,-78"/>
</g>
<!-- SearchPage -->
<g id="node1" class="node">
<title>SearchPage</title>
<polygon fill="#ffffb3" stroke="#000000" points="385.7994,-122 304.2006,-122 304.2006,-86 385.7994,-86 385.7994,-122"/>
<text text-anchor="middle" x="345" y="-99.8" font-family="Times,serif" font-size="14.00" fill="#000000">SearchPage</text>
</g>
<!-- SearchPageModule -->
<g id="node2" class="node">
<title>SearchPageModule</title>
<polygon fill="#8dd3c7" stroke="#000000" points="325.3487,-187 322.3487,-191 301.3487,-191 298.3487,-187 200.6513,-187 200.6513,-151 325.3487,-151 325.3487,-187"/>
<text text-anchor="middle" x="263" y="-164.8" font-family="Times,serif" font-size="14.00" fill="#000000">SearchPageModule</text>
</g>
<!-- SearchPage&#45;&gt;SearchPageModule -->
<g id="edge1" class="edge">
<title>SearchPage&#45;&gt;SearchPageModule</title>
<path fill="none" stroke="#000000" d="M314.8875,-122.1061C314.8875,-122.1061 314.8875,-140.991 314.8875,-140.991"/>
<polygon fill="#000000" stroke="#000000" points="311.3875,-140.9909 314.8875,-150.991 318.3875,-140.991 311.3875,-140.9909"/>
</g>
<!-- SearchPageRoutingModule -->
<g id="node3" class="node">
<title>SearchPageRoutingModule</title>
<polygon fill="#8dd3c7" stroke="#000000" points="279.9664,-122 276.9664,-126 255.9664,-126 252.9664,-122 110.0336,-122 110.0336,-86 279.9664,-86 279.9664,-122"/>
<text text-anchor="middle" x="195" y="-99.8" font-family="Times,serif" font-size="14.00" fill="#000000">SearchPageRoutingModule</text>
</g>
<!-- SearchPageRoutingModule&#45;&gt;SearchPageModule -->
<g id="edge2" class="edge">
<title>SearchPageRoutingModule&#45;&gt;SearchPageModule</title>
<path fill="none" stroke="#000000" d="M240.2795,-122.1061C240.2795,-122.1061 240.2795,-140.991 240.2795,-140.991"/>
<polygon fill="#000000" stroke="#000000" points="236.7795,-140.9909 240.2795,-150.991 243.7795,-140.991 236.7795,-140.9909"/>
</g>
</g>
</svg>
